<svg xmlns="http://www.w3.org/2000/svg" viewBox="0 0 512 512"><circle cx="256" cy="256" r="256" style="fill:#f6bb37"/><path d="M486 317.11a168.17 168.17 0 0 1-230 156.3 168.08 168.08 0 1 1 0-312.59 168.17 168.17 0 0 1 230 156.29z" style="fill:#e24445"/><path d="M330.58 76a5 5 0 0 0-6.58-2.6c-14.72 6.43-29 17.29-43.67 33.19l-.08.08c-29.14 33-42.37 78.43-36 122.58a64.5 64.5 0 0 1-35-18.1 5 5 0 0 0-7.08 7.07 75 75 0 0 0 106.07 0 5 5 0 0 0-7.07-7.07 64.57 64.57 0 0 1-46 19h-.72c-6.75-42 5.54-85.42 33.24-116.84C301.42 98.49 314.6 88.42 328 82.56a5 5 0 0 0 2.58-6.56z"/><path d="M62.82 335.92A9.92 9.92 0 0 1 52.9 326a148.59 148.59 0 0 1 46.24-108.27 9.92 9.92 0 1 1 13.72 14.33A128.93 128.93 0 0 0 72.74 326a9.92 9.92 0 0 1-9.92 9.92z" style="fill:#fff;opacity:.3"/><path d="M442.4 374.84a5 5 0 0 0-6.68 2.31 140.38 140.38 0 0 1-20.59 31 5 5 0 1 0 7.52 6.58 149.67 149.67 0 0 0 11.81-15.38 2.14 2.14 0 0 1 .13-.19l.08-.13.09-.13v-.06l.09-.13v-.06l.09-.13.08-.12.12-.19v-.06a.57.57 0 0 1 .08-.13.83.83 0 0 0 .08-.12v-.06l.08-.13.08-.12v-.06l.08-.12v-.31a.83.83 0 0 0 .08-.12l.08-.12v-.06a.83.83 0 0 0 .08-.12v-.06a.43.43 0 0 0 0-.07v-.05l.07-.12v-.05l.08-.13a.21.21 0 0 0 0-.06v-.05l.08-.12v-.05a.21.21 0 0 0 0-.06v-.12a.21.21 0 0 1 0-.06V395.34l.07-.12v-.12a.21.21 0 0 0 0-.06v-.11l.07-.12V394.64l.08-.13v-.06l.08-.13v-.11a.21.21 0 0 0 0-.06.83.83 0 0 0 .08-.12v-.19l.07-.13v-.06l.07-.13s0-.08.07-.13v-.06s0-.08.07-.13v-.05s.05-.08.07-.13.05-.08.07-.13v-.06s0-.08.07-.13a2 2 0 0 1 .11-.2l.08-.13v-.06l.08-.14.12-.2c.06-.12.13-.23.19-.34l.2-.34.08-.13v-.06s.05-.09.07-.14l.12-.2c1.57-2.76 3.06-5.59 4.46-8.46a5 5 0 0 0 .01-7.46zm-33.41 47a5 5 0 0 0-7.06-.48l-.35.31a5 5 0 0 0-.48 7.06 5 5 0 0 0 7 .48l.08-.06.27-.24a5 5 0 0 0 .55-7.07zm-15.34 12.54a5 5 0 0 0-6.93-1.42 139.06 139.06 0 0 1-33.51 16.16 5 5 0 0 0 1.55 9.76 4.87 4.87 0 0 0 1.54-.25c1.39-.45 2.77-.92 4.15-1.42l.22-.08.21-.07.37-.13.15-.06.15-.06.16-.06h.05l.15-.06.14-.06H362.22l.14-.05H364.91l.14-.06h.06l.13-.06h.19l.21-.09.14-.06.43-.18.15-.06.57-.24.58-.25a147.82 147.82 0 0 0 14-7h.06l.13-.07.2-.12h.19l.13-.08h.19l.13-.07h.06l.13-.08a.1.1 0 0 0 .05 0H383.01l.12-.07h.27l.12-.07h.29l.11-.07h.11l.13-.08.1-.06.14-.09h.05l.14-.09c1.32-.81 2.61-1.64 3.9-2.48a5 5 0 0 0 5.16-10.77z"/><g data-name="Black outlines - to remove"><path d="M317.92 159a158.08 158.08 0 1 1-58.23 305.07l-3.69-1.42-3.69 1.46a158.07 158.07 0 1 1 0-294l3.69 1.47 3.69-1.47A157.19 157.19 0 0 1 317.92 159m0-10A167.56 167.56 0 0 0 256 160.82a168.08 168.08 0 1 0 0 312.59A168.09 168.09 0 1 0 317.92 149z"/></g><g data-name="Leaves on top"><path d="M201.21 110c42.48 42.48 33.1 94.34 33.1 94.34s-51.86 9.38-94.34-33.1-33.09-94.33-33.09-94.33 51.86-9.41 94.33 33.09z" style="fill:#049146"/><path d="M119.73 86a104.76 104.76 0 0 1 74.41 31.05 104.74 104.74 0 0 1 31 78.07c-1.11 0-2.33.07-3.65.07a104.8 104.8 0 0 1-74.41-31.05 104.74 104.74 0 0 1-31-78.07c1.11 0 2.33-.07 3.64-.07m0-10a79.72 79.72 0 0 0-12.84.88S97.5 128.74 140 171.21a114.57 114.57 0 0 0 81.49 34 79.79 79.79 0 0 0 12.85-.88s9.38-51.86-33.1-94.34a114.57 114.57 0 0 0-81.49-34z" style="fill:#010101"/></g></svg>